<?xml version="1.0" encoding="UTF-8" standalone="no"?>
<!-- Created with Inkscape (http://www.inkscape.org/) -->

<svg
   xmlns:dc="http://purl.org/dc/elements/1.1/"
   xmlns:cc="http://creativecommons.org/ns#"
   xmlns:rdf="http://www.w3.org/1999/02/22-rdf-syntax-ns#"
   xmlns:svg="http://www.w3.org/2000/svg"
   xmlns="http://www.w3.org/2000/svg"
   xmlns:sodipodi="http://sodipodi.sourceforge.net/DTD/sodipodi-0.dtd"
   xmlns:inkscape="http://www.inkscape.org/namespaces/inkscape"
   version="1.1"
   id="svg94520"
   xml:space="preserve"
   width="800"
   height="800"
   viewBox="0 0 800 800"
   sodipodi:docname="wooden-pallet-publicdomainvectors.org.svg"
   inkscape:version="0.92.4 (5da689c313, 2019-01-14)"><metadata
     id="metadata94526"><rdf:RDF><cc:Work
         rdf:about=""><dc:format>image/svg+xml</dc:format><dc:type
           rdf:resource="http://purl.org/dc/dcmitype/StillImage" /><dc:title></dc:title></cc:Work></rdf:RDF></metadata><defs
     id="defs94524"><clipPath
       clipPathUnits="userSpaceOnUse"
       id="clipPath94536"><path
         d="M 0,600 H 600 V 0 H 0 Z"
         id="path94534"
         inkscape:connector-curvature="0" /></clipPath></defs><sodipodi:namedview
     pagecolor="#ffffff"
     bordercolor="#666666"
     borderopacity="1"
     objecttolerance="10"
     gridtolerance="10"
     guidetolerance="10"
     inkscape:pageopacity="0"
     inkscape:pageshadow="2"
     inkscape:window-width="797"
     inkscape:window-height="480"
     id="namedview94522"
     showgrid="false"
     inkscape:zoom="0.295"
     inkscape:cx="400"
     inkscape:cy="400"
     inkscape:window-x="0"
     inkscape:window-y="0"
     inkscape:window-maximized="0"
     inkscape:current-layer="g94528" /><g
     id="g94528"
     inkscape:groupmode="layer"
     inkscape:label="wooden-pallet-publicdomainvectors.org"
     transform="matrix(1.3333333,0,0,-1.3333333,0,800)"><g
       id="g94530"><g
         id="g94532"
         clip-path="url(#clipPath94536)"><path
           d="m 352.212,465.39 -42.229,24.38 -42.227,-24.38 42.227,-24.38 z"
           style="fill:#996633;fill-opacity:1;fill-rule:evenodd;stroke:none"
           id="path94538"
           inkscape:connector-curvature="0" /><path
           d="m 309.983,386.919 v 54.091 l -42.227,24.38 V 411.3 Z"
           style="fill:#7a4e22;fill-opacity:1;fill-rule:evenodd;stroke:none"
           id="path94540"
           inkscape:connector-curvature="0" /><path
           d="m 309.983,386.919 v 54.091 l 42.229,24.38 V 411.3 Z"
           style="fill:#875523;fill-opacity:1;fill-rule:evenodd;stroke:none"
           id="path94542"
           inkscape:connector-curvature="0" /><path
           d="m 352.212,465.39 -42.229,-23.376 -41.601,23.015 41.601,-25.619 z"
           style="fill:#613c17;fill-opacity:1;fill-rule:evenodd;stroke:none"
           id="path94544"
           inkscape:connector-curvature="0" /><path
           d="m 38.922,282.97 269.382,155.527 35.472,-21.493 v -6.787 L 87.157,262.106 H 75.143 Z"
           style="fill:#875523;fill-opacity:1;fill-rule:evenodd;stroke:none"
           id="path94546"
           inkscape:connector-curvature="0" /><path
           d="m 38.922,282.97 36.221,-20.864 v -14.75 l -36.221,20.912 z"
           style="fill:#a87541;fill-opacity:1;fill-rule:evenodd;stroke:none"
           id="path94548"
           inkscape:connector-curvature="0" /><path
           d="m 75.143,247.356 h 12.014 v 14.75 H 75.143 Z"
           style="fill:#996633;fill-opacity:1;fill-rule:evenodd;stroke:none"
           id="path94550"
           inkscape:connector-curvature="0" /><path
           d="m 87.157,247.356 256.619,148.131 v 14.73 L 87.157,262.106 Z"
           style="fill:#7a4e22;fill-opacity:1;fill-rule:evenodd;stroke:none"
           id="path94552"
           inkscape:connector-curvature="0" /><path
           d="M 39.438,282.673 75.143,260.511 H 87.157 L 308.413,388.855 343.776,410.217 87.157,262.106 H 75.143 Z"
           style="fill:#d6a97c;fill-opacity:1;fill-rule:evenodd;stroke:none"
           id="path94554"
           inkscape:connector-curvature="0" /><path
           d="m 99.903,308.48 256.618,148.132 v 14.731 L 99.903,323.233 Z"
           style="fill:#7a4e22;fill-opacity:1;fill-rule:evenodd;stroke:none"
           id="path94556"
           inkscape:connector-curvature="0" /><path
           d="m 41.741,338.366 269.382,155.528 35.473,-21.493 v -6.787 L 89.977,317.503 H 77.962 Z"
           style="fill:#875523;fill-opacity:1;fill-rule:evenodd;stroke:none"
           id="path94558"
           inkscape:connector-curvature="0" /><path
           d="m 259.321,140.856 269.381,155.528 35.473,-21.492 v -6.788 L 307.557,119.993 h -12.015 z"
           style="fill:#875523;fill-opacity:1;fill-rule:evenodd;stroke:none"
           id="path94560"
           inkscape:connector-curvature="0" /><path
           d="m 259.321,140.856 36.221,-20.863 v -14.75 l -36.221,20.912 z"
           style="fill:#a87541;fill-opacity:1;fill-rule:evenodd;stroke:none"
           id="path94562"
           inkscape:connector-curvature="0" /><path
           d="m 295.542,105.243 h 12.015 v 14.75 h -12.015 z"
           style="fill:#996633;fill-opacity:1;fill-rule:evenodd;stroke:none"
           id="path94564"
           inkscape:connector-curvature="0" /><path
           d="m 307.557,105.243 256.618,148.131 v 14.73 L 307.557,119.993 Z"
           style="fill:#7a4e22;fill-opacity:1;fill-rule:evenodd;stroke:none"
           id="path94566"
           inkscape:connector-curvature="0" /><path
           d="m 259.835,140.562 35.707,-22.165 h 12.015 l 221.256,128.345 35.362,21.362 -256.618,-148.111 h -12.015 z"
           style="fill:#d6a97c;fill-opacity:1;fill-rule:evenodd;stroke:none"
           id="path94568"
           inkscape:connector-curvature="0" /><path
           d="m 259.32,194.786 42.228,24.38 42.228,-24.38 -36.219,-20.912 h -12.015 z"
           style="fill:#c79768;fill-opacity:1;fill-rule:evenodd;stroke:none"
           id="path94570"
           inkscape:connector-curvature="0" /><path
           d="m 307.557,119.993 v 53.881 l 36.219,20.912 v -53.93 z"
           style="fill:#996633;fill-opacity:1;fill-rule:evenodd;stroke:none"
           id="path94572"
           inkscape:connector-curvature="0" /><path
           d="m 295.542,119.993 v 53.881 l -36.221,20.912 v -53.93 z"
           style="fill:#ba8754;fill-opacity:1;fill-rule:evenodd;stroke:none"
           id="path94574"
           inkscape:connector-curvature="0" /><path
           d="m 295.542,173.874 h 12.015 v -53.881 h -12.015 z"
           style="fill:#a87541;fill-opacity:1;fill-rule:evenodd;stroke:none"
           id="path94576"
           inkscape:connector-curvature="0" /><path
           d="m 261.463,193.55 34.079,-20.522 h 12.015 l 35.089,21.106 -35.089,-19.35 -12.015,-0.047 z"
           style="fill:#d6a97c;fill-opacity:1;fill-rule:evenodd;stroke:none"
           id="path94578"
           inkscape:connector-curvature="0" /><path
           d="m 486.474,326.043 42.228,24.38 35.473,-20.48 v -7.799 l -35.473,-20.481 z"
           style="fill:#c79768;fill-opacity:1;fill-rule:evenodd;stroke:none"
           id="path94580"
           inkscape:connector-curvature="0" /><path
           d="m 528.702,247.624 v 54.039 l 35.473,20.481 v -54.04 z"
           style="fill:#996633;fill-opacity:1;fill-rule:evenodd;stroke:none"
           id="path94582"
           inkscape:connector-curvature="0" /><path
           d="m 528.702,247.624 v 54.039 l -42.228,24.38 v -54.039 z"
           style="fill:#a87541;fill-opacity:1;fill-rule:evenodd;stroke:none"
           id="path94584"
           inkscape:connector-curvature="0" /><path
           d="m 486.474,326.043 42.228,-23.376 35.473,19.624 v -0.286 l -35.473,-21.28 z"
           style="fill:#613c17;fill-opacity:1;fill-rule:evenodd;stroke:none"
           id="path94586"
           inkscape:connector-curvature="0" /><path
           d="m 377.057,262.923 42.228,24.38 42.228,-24.38 -42.228,-24.381 z"
           style="fill:#c79768;fill-opacity:1;fill-rule:evenodd;stroke:none"
           id="path94588"
           inkscape:connector-curvature="0" /><path
           d="m 419.285,184.453 v 54.089 l 42.228,24.381 v -54.09 z"
           style="fill:#996633;fill-opacity:1;fill-rule:evenodd;stroke:none"
           id="path94590"
           inkscape:connector-curvature="0" /><path
           d="m 419.285,184.453 v 54.089 l -42.228,24.381 v -54.09 z"
           style="fill:#a87541;fill-opacity:1;fill-rule:evenodd;stroke:none"
           id="path94592"
           inkscape:connector-curvature="0" /><path
           d="m 377.057,262.923 42.228,-23.376 41.603,23.014 -41.603,-25.618 z"
           style="fill:#613c17;fill-opacity:1;fill-rule:evenodd;stroke:none"
           id="path94594"
           inkscape:connector-curvature="0" /><path
           d="M 343.776,141.02 74.395,296.548 38.922,275.055 v -6.787 l 256.62,-148.111 h 12.015 z"
           style="fill:#875523;fill-opacity:1;fill-rule:evenodd;stroke:none"
           id="path94596"
           inkscape:connector-curvature="0" /><path
           d="m 343.776,141.02 -36.219,-20.863 v -14.751 l 36.219,20.912 z"
           style="fill:#a87541;fill-opacity:1;fill-rule:evenodd;stroke:none"
           id="path94598"
           inkscape:connector-curvature="0" /><path
           d="m 295.54,105.406 h 12.017 v 14.752 H 295.54 Z"
           style="fill:#996633;fill-opacity:1;fill-rule:evenodd;stroke:none"
           id="path94600"
           inkscape:connector-curvature="0" /><path
           d="M 295.542,105.406 38.922,253.537 v 14.731 l 256.62,-148.111 z"
           style="fill:#7a4e22;fill-opacity:1;fill-rule:evenodd;stroke:none"
           id="path94602"
           inkscape:connector-curvature="0" /><path
           d="M 343.261,140.725 307.557,118.562 H 295.542 L 74.286,246.905 38.922,268.268 295.542,120.157 h 12.015 z"
           style="fill:#d6a97c;fill-opacity:1;fill-rule:evenodd;stroke:none"
           id="path94604"
           inkscape:connector-curvature="0" /><path
           d="m 343.777,194.949 -42.227,24.382 -42.229,-24.382 36.221,-20.911 h 12.015 z"
           style="fill:#c79768;fill-opacity:1;fill-rule:evenodd;stroke:none"
           id="path94606"
           inkscape:connector-curvature="0" /><path
           d="m 295.542,120.157 v 53.881 l -36.221,20.911 V 141.02 Z"
           style="fill:#996633;fill-opacity:1;fill-rule:evenodd;stroke:none"
           id="path94608"
           inkscape:connector-curvature="0" /><path
           d="m 307.557,120.157 v 53.881 l 36.219,20.911 V 141.02 Z"
           style="fill:#ba8754;fill-opacity:1;fill-rule:evenodd;stroke:none"
           id="path94610"
           inkscape:connector-curvature="0" /><path
           d="m 307.557,174.038 h -12.015 v -53.881 h 12.015 z"
           style="fill:#a87541;fill-opacity:1;fill-rule:evenodd;stroke:none"
           id="path94612"
           inkscape:connector-curvature="0" /><path
           d="m 116.624,326.207 -42.229,24.38 -35.473,-20.481 v -7.799 l 35.473,-20.48 z"
           style="fill:#c79768;fill-opacity:1;fill-rule:evenodd;stroke:none"
           id="path94614"
           inkscape:connector-curvature="0" /><path
           d="m 74.395,247.787 v 54.04 l -35.473,20.48 v -54.039 z"
           style="fill:#996633;fill-opacity:1;fill-rule:evenodd;stroke:none"
           id="path94616"
           inkscape:connector-curvature="0" /><path
           d="m 74.395,247.787 v 54.04 l 42.228,24.38 v -54.04 z"
           style="fill:#a87541;fill-opacity:1;fill-rule:evenodd;stroke:none"
           id="path94618"
           inkscape:connector-curvature="0" /><path
           d="M 116.623,326.207 74.395,302.83 38.922,322.454 v -0.286 L 74.395,300.89 Z"
           style="fill:#613c17;fill-opacity:1;fill-rule:evenodd;stroke:none"
           id="path94620"
           inkscape:connector-curvature="0" /><path
           d="m 226.039,263.085 -42.228,24.381 -42.228,-24.381 42.228,-24.379 z"
           style="fill:#c79768;fill-opacity:1;fill-rule:evenodd;stroke:none"
           id="path94622"
           inkscape:connector-curvature="0" /><path
           d="m 183.811,184.615 v 54.091 l -42.228,24.379 v -54.087 z"
           style="fill:#996633;fill-opacity:1;fill-rule:evenodd;stroke:none"
           id="path94624"
           inkscape:connector-curvature="0" /><path
           d="m 183.811,184.615 v 54.091 l 42.228,24.379 v -54.087 z"
           style="fill:#a87541;fill-opacity:1;fill-rule:evenodd;stroke:none"
           id="path94626"
           inkscape:connector-curvature="0" /><path
           d="m 226.039,263.085 -42.228,-23.376 -41.602,23.016 41.602,-25.619 z"
           style="fill:#613c17;fill-opacity:1;fill-rule:evenodd;stroke:none"
           id="path94628"
           inkscape:connector-curvature="0" /><path
           d="M 343.776,209.652 74.395,365.178 38.922,343.687 v -6.788 l 256.62,-148.11 h 12.015 z"
           style="fill:#875523;fill-opacity:1;fill-rule:evenodd;stroke:none"
           id="path94630"
           inkscape:connector-curvature="0" /><path
           d="m 343.776,209.652 -36.219,-20.863 v -14.751 l 36.219,20.911 z"
           style="fill:#a87541;fill-opacity:1;fill-rule:evenodd;stroke:none"
           id="path94632"
           inkscape:connector-curvature="0" /><path
           d="m 295.54,174.038 h 12.017 v 14.751 H 295.54 Z"
           style="fill:#996633;fill-opacity:1;fill-rule:evenodd;stroke:none"
           id="path94634"
           inkscape:connector-curvature="0" /><path
           d="m 295.542,174.038 -256.62,148.13 v 14.731 l 256.62,-148.11 z"
           style="fill:#7a4e22;fill-opacity:1;fill-rule:evenodd;stroke:none"
           id="path94636"
           inkscape:connector-curvature="0" /><path
           d="M 343.261,209.354 307.557,187.192 H 295.542 L 74.286,315.538 38.922,336.899 295.542,188.789 h 12.015 z"
           style="fill:#d6a97c;fill-opacity:1;fill-rule:evenodd;stroke:none"
           id="path94638"
           inkscape:connector-curvature="0" /><path
           d="m 259.321,209.488 269.381,155.527 35.473,-21.492 v -6.787 L 307.557,188.625 h -12.015 z"
           style="fill:#875523;fill-opacity:1;fill-rule:evenodd;stroke:none"
           id="path94640"
           inkscape:connector-curvature="0" /><path
           d="m 295.542,173.874 h 12.015 v 14.751 h -12.015 z"
           style="fill:#996633;fill-opacity:1;fill-rule:evenodd;stroke:none"
           id="path94642"
           inkscape:connector-curvature="0" /><path
           d="m 307.557,173.874 256.618,148.131 v 14.731 L 307.557,188.625 Z"
           style="fill:#7a4e22;fill-opacity:1;fill-rule:evenodd;stroke:none"
           id="path94644"
           inkscape:connector-curvature="0" /><path
           d="m 343.776,209.488 -36.219,-20.863 v -14.751 l 36.219,20.912 z"
           style="fill:#a87541;fill-opacity:1;fill-rule:evenodd;stroke:none"
           id="path94646"
           inkscape:connector-curvature="0" /><path
           d="m 259.835,209.192 35.707,-22.163 h 12.015 l 221.256,128.344 35.362,21.363 -256.618,-148.111 h -12.015 z"
           style="fill:#d6a97c;fill-opacity:1;fill-rule:evenodd;stroke:none"
           id="path94648"
           inkscape:connector-curvature="0" /><path
           d="M 572.46,356.271 303.079,511.798 267.606,490.306 v -6.787 l 256.62,-148.111 h 12.014 z"
           style="fill:#bf8c5a;fill-opacity:1;fill-rule:evenodd;stroke:none"
           id="path94650"
           inkscape:connector-curvature="0" /><path
           d="m 572.46,356.271 -36.22,-20.863 v -14.751 l 36.22,20.912 z"
           style="fill:#9c6833;fill-opacity:1;fill-rule:evenodd;stroke:none"
           id="path94652"
           inkscape:connector-curvature="0" /><path
           d="m 524.226,320.657 h 12.015 v 14.751 h -12.015 z"
           style="fill:#a87541;fill-opacity:1;fill-rule:evenodd;stroke:none"
           id="path94654"
           inkscape:connector-curvature="0" /><path
           d="m 524.226,320.657 -256.62,148.131 v 14.731 l 256.62,-148.111 z"
           style="fill:#b37f4b;fill-opacity:1;fill-rule:evenodd;stroke:none"
           id="path94656"
           inkscape:connector-curvature="0" /><path
           d="M 571.944,355.975 536.24,333.812 H 524.226 L 302.97,462.157 267.606,483.519 524.226,335.408 h 12.014 z"
           style="fill:#d6a97c;fill-opacity:1;fill-rule:evenodd;stroke:none"
           id="path94658"
           inkscape:connector-curvature="0" /><path
           d="M 513.619,322.296 C 423.825,374.137 334.031,425.98 244.239,477.822 232.415,470.658 220.59,463.494 208.765,456.33 v -6.787 c 85.541,-49.37 171.079,-98.74 256.621,-148.108 h 12.012 c 12.075,6.952 24.148,13.906 36.221,20.861"
           style="fill:#bf8c5a;fill-opacity:1;fill-rule:evenodd;stroke:none"
           id="path94660"
           inkscape:connector-curvature="0" /><path
           d="m 513.619,322.296 c -12.073,-6.955 -24.146,-13.909 -36.221,-20.861 v -14.753 c 12.075,6.969 24.148,13.941 36.221,20.911 z"
           style="fill:#9c6833;fill-opacity:1;fill-rule:evenodd;stroke:none"
           id="path94662"
           inkscape:connector-curvature="0" /><path
           d="m 465.386,301.435 h 12.013 v -14.753 h -12.013 z"
           style="fill:#a87541;fill-opacity:1;fill-rule:evenodd;stroke:none"
           id="path94664"
           inkscape:connector-curvature="0" /><path
           d="m 465.386,286.682 c -85.541,49.378 -171.08,98.755 -256.62,148.131 v 14.73 c 85.54,-49.37 171.079,-98.74 256.62,-148.108 z"
           style="fill:#b37f4b;fill-opacity:1;fill-rule:evenodd;stroke:none"
           id="path94666"
           inkscape:connector-curvature="0" /><path
           d="m 513.104,322.001 c -11.901,-7.389 -23.803,-14.776 -35.706,-22.165 h -12.012 c -73.752,42.782 -147.505,85.564 -221.257,128.346 -11.787,7.12 -23.575,14.241 -35.363,21.361 85.54,-49.37 171.079,-98.74 256.62,-148.108 h 12.012 c 11.903,6.854 23.805,13.709 35.706,20.566"
           style="fill:#d6a97c;fill-opacity:1;fill-rule:evenodd;stroke:none"
           id="path94668"
           inkscape:connector-curvature="0" /><path
           d="m 454.779,288.321 c -89.795,51.842 -179.588,103.684 -269.382,155.527 -11.823,-7.165 -23.648,-14.329 -35.472,-21.493 v -6.788 c 85.539,-49.37 171.078,-98.738 256.619,-148.109 h 12.012 c 12.075,6.955 24.148,13.908 36.223,20.863"
           style="fill:#bf8c5a;fill-opacity:1;fill-rule:evenodd;stroke:none"
           id="path94670"
           inkscape:connector-curvature="0" /><path
           d="m 454.779,288.321 c -12.074,-6.955 -24.147,-13.908 -36.22,-20.863 v -14.753 c 12.073,6.973 24.146,13.943 36.22,20.914 z"
           style="fill:#9c6833;fill-opacity:1;fill-rule:evenodd;stroke:none"
           id="path94672"
           inkscape:connector-curvature="0" /><path
           d="m 406.544,267.458 h 12.015 v -14.753 h -12.015 z"
           style="fill:#a87541;fill-opacity:1;fill-rule:evenodd;stroke:none"
           id="path94674"
           inkscape:connector-curvature="0" /><path
           d="m 406.544,252.708 c -85.541,49.375 -171.079,98.753 -256.619,148.13 v 14.73 c 85.54,-49.37 171.078,-98.739 256.619,-148.11 z"
           style="fill:#b37f4b;fill-opacity:1;fill-rule:evenodd;stroke:none"
           id="path94676"
           inkscape:connector-curvature="0" /><path
           d="M 454.262,288.024 C 442.36,280.637 430.459,273.25 418.559,265.862 h -12.015 c -73.752,42.783 -147.503,85.562 -221.256,128.345 -11.788,7.12 -23.575,14.24 -35.363,21.361 85.54,-49.37 171.078,-98.739 256.619,-148.11 h 12.015 c 11.9,6.855 23.801,13.712 35.703,20.566"
           style="fill:#d6a97c;fill-opacity:1;fill-rule:evenodd;stroke:none"
           id="path94678"
           inkscape:connector-curvature="0" /><path
           d="M 395.938,254.345 126.556,409.872 91.083,388.379 v -6.788 l 256.62,-148.109 h 12.014 z"
           style="fill:#bf8c5a;fill-opacity:1;fill-rule:evenodd;stroke:none"
           id="path94680"
           inkscape:connector-curvature="0" /><path
           d="M 395.938,254.345 359.717,233.482 V 218.73 l 36.221,20.913 z"
           style="fill:#9c6833;fill-opacity:1;fill-rule:evenodd;stroke:none"
           id="path94682"
           inkscape:connector-curvature="0" /><path
           d="m 347.703,218.73 h 12.014 v 14.752 h -12.014 z"
           style="fill:#a87541;fill-opacity:1;fill-rule:evenodd;stroke:none"
           id="path94684"
           inkscape:connector-curvature="0" /><path
           d="M 347.703,218.73 91.083,366.862 v 14.729 l 256.62,-148.109 z"
           style="fill:#b37f4b;fill-opacity:1;fill-rule:evenodd;stroke:none"
           id="path94686"
           inkscape:connector-curvature="0" /><path
           d="M 395.422,254.047 359.717,231.885 H 347.703 L 126.446,360.23 91.083,381.591 347.703,233.482 h 12.014 z"
           style="fill:#d6a97c;fill-opacity:1;fill-rule:evenodd;stroke:none"
           id="path94688"
           inkscape:connector-curvature="0" /><path
           d="m 342.094,193.801 -34.537,-20.61 h -12.015 l -35.09,21.106 35.09,-19.35 12.015,-0.047 z"
           style="fill:#d6a97c;fill-opacity:1;fill-rule:evenodd;stroke:none"
           id="path94690"
           inkscape:connector-curvature="0" /><path
           d="M 335.405,219.375 66.024,374.901 30.551,353.409 v -6.787 l 256.62,-148.109 h 12.014 z"
           style="fill:#bf8c5a;fill-opacity:1;fill-rule:evenodd;stroke:none"
           id="path94692"
           inkscape:connector-curvature="0" /><path
           d="m 335.405,219.375 -36.22,-20.862 V 183.76 l 36.22,20.912 z"
           style="fill:#a87541;fill-opacity:1;fill-rule:evenodd;stroke:none"
           id="path94694"
           inkscape:connector-curvature="0" /><path
           d="m 287.171,183.76 h 12.014 v 14.753 h -12.014 z"
           style="fill:#b37f4b;fill-opacity:1;fill-rule:evenodd;stroke:none"
           id="path94696"
           inkscape:connector-curvature="0" /><path
           d="M 287.171,183.76 30.551,331.893 v 14.729 l 256.62,-148.109 z"
           style="fill:#bf8c5a;fill-opacity:1;fill-rule:evenodd;stroke:none"
           id="path94698"
           inkscape:connector-curvature="0" /><path
           d="M 334.891,219.078 299.185,196.915 H 287.171 L 65.915,325.261 30.551,346.622 287.171,198.513 h 12.014 z"
           style="fill:#d6a97c;fill-opacity:1;fill-rule:evenodd;stroke:none"
           id="path94700"
           inkscape:connector-curvature="0" /></g></g></g></svg>